<?xml version="1.0" encoding="utf-8"?>
<svg xmlns="http://www.w3.org/2000/svg" xmlns:xlink="http://www.w3.org/1999/xlink" version= "1.1" width="1146px" height="818px" viewBox="-213 302 1146 818">
<g id="layer1">
<g style="fill:rgb(129,195,235); fill-opacity:1.0; stroke-linejoin: miter">
<path d="M-213.001,300.7515C-213.33186,300.7515,-213.64917,300.88293,-213.88312,301.11688C-214.11707,301.35083,-214.2485,301.66812,-214.2485,301.999L-214.2475,1120.0C-214.2475,1120.689,-213.68898,1121.2476,-213.0,1121.2476L933.001,1121.2485C933.33185,1121.2485,933.6492,1121.1171,933.8831,1120.883C934.11707,1120.649,934.2485,1120.3318,934.2485,1120.001L934.2475,302.0C934.2475,301.31104,933.68896,300.7525,933.0,300.7525L-213.001,300.7515 Z"/>
</g>
<g style="fill:rgb(0,0,0); fill-opacity:0.40392157; stroke-linejoin: miter">
<path d="M842.193,1032.6301L837.9739,1034.3623Q807.9774,1039.5977,662.43494,1042.7363Q515.8855,1045.8726,317.29083,1045.2798Q127.75805,1044.4514,14.122757,1040.4312Q-22.287243,1039.1318,-45.858685,1037.5994L-65.66982,1036.0239Q-81.99602,1034.3977,-82.17957,1032.6301Q-77.22341,1027.2051,53.19166,1023.603Q183.60672,1020.0008,380.0067,1019.8639Q576.40674,1020.0008,706.8218,1023.603Q837.23694,1027.2051,842.193,1032.6301"/>
</g>
<g style="fill:rgb(255,255,255); fill-opacity:0.7058824; stroke-linejoin: miter">
<path d="M80.59202,501.65878C81.204414,499.41977,81.50248,497.10873,81.47919,494.7664C81.336945,480.91483,69.952965,469.76193,56.101284,469.90353C50.338737,469.96152,44.730087,472.02023,40.308334,475.69955C36.375828,478.97098,33.522438,483.39285,32.158237,488.28183C22.880419,487.51016,14.56008,493.4775,12.029522,502.0886C10.622862,501.78348,9.187279,501.63657,7.741509,501.6519C-2.9186504,501.76108,-11.503534,510.4601,-11.394812,521.12006C-11.285532,531.7813,-2.5247371,540.3021,8.1359005,540.19324L75.63245,539.5033C86.29309,539.3941,94.87732,530.6947,94.768265,520.0341C94.679115,511.3127,88.83013,503.91867,80.59202,501.65878 Z"/>
</g>
<g style="fill:rgb(255,203,40); fill-opacity:1.0; stroke-linejoin: miter">
<path d="M256.3082,567.177L57.569294,779.24274L455.12314,779.1726L256.3082,567.177 Z M256.33945,738.9658C234.1147,738.97034,216.09512,720.9561,216.09093,698.7322C216.08658,676.5069,234.09976,658.4877,256.32516,658.4831C278.5501,658.4796,296.56915,676.49347,296.57364,698.71735C296.57697,720.94116,278.56482,738.96204,256.33945,738.9658 Z"/>
</g>
<g style="fill:rgb(255,203,40); fill-opacity:1.0; stroke-linejoin: miter">
<path d="M55.203014,781.7695L55.141575,781.83435L55.17973,993.864L269.80002,993.8264L269.76868,819.44574L397.1998,819.4239L397.2313,993.8021L457.5933,993.79224L457.55682,792.5844L55.204746,792.6585L55.203014,781.7695 Z M105.474045,953.61426L105.45921,873.1315L105.45719,859.7175L105.452,832.89087L105.4495,819.4767L118.8632,819.47504L212.75958,819.4576L226.1731,819.4557L226.17508,832.8687L226.18024,859.6957L226.18266,873.11L226.1968,953.59204L226.19958,967.00574L212.78534,967.0088L118.88998,967.0249L105.47603,967.0287L105.474045,953.61426 Z"/>
</g>
<g style="fill:rgb(88,95,113); fill-opacity:1.0; stroke-linejoin: miter">
<path d="M455.12442,779.1715L57.56927,779.2439L55.20306,781.7695L55.20477,792.65704L457.556,792.58606L457.61697,792.5845L457.61563,781.828 Z"/>
</g>
<g style="fill:rgb(112,97,78); fill-opacity:1.0; stroke-linejoin: miter">
<path d="M506.81528,775.46136L444.18848,708.68536L444.17477,631.6225L403.93375,631.6308L403.93964,665.7673L256.29813,508.34103L5.8775797,775.55164L35.242435,803.06775L55.140545,781.83435L55.203014,781.7695L57.569294,779.24274L256.3082,567.177L455.1244,779.17145L457.61563,781.82794L477.46088,802.98834 Z"/>
</g>
<g style="fill:rgb(105,90,105); fill-opacity:1.0; stroke-linejoin: miter">
<path d="M256.32516,658.4831C234.09976,658.4877,216.08658,676.5081,216.09093,698.7322C216.09512,720.957,234.1147,738.9697,256.33945,738.9658C278.56482,738.96204,296.57697,720.94116,296.57364,698.71735C296.56915,676.49225,278.5501,658.4796,256.32516,658.4831 Z M256.33694,725.5521C241.51979,725.5552,229.50702,713.54584,229.50429,698.7297C229.50334,689.0418,234.6371,680.555,242.33418,675.8373C246.02467,673.5737,250.30467,672.18024,254.89165,671.937C255.3669,671.9115,255.8462,671.89734,256.32877,671.89734C271.14514,671.89435,283.158,683.90283,283.16064,698.71985C283.16345,713.53687,271.1537,725.5495,256.33694,725.5521 Z"/>
</g>
<g style="fill:rgb(149,255,255); fill-opacity:1.0; stroke-linejoin: miter">
<path d="M256.32736,671.89734C271.14264,671.89435,283.15646,683.904,283.1597,698.71985C283.15646,683.90283,271.1439,671.89435,256.32736,671.89734 Z"/>
</g>
<g style="fill:rgb(149,255,255); fill-opacity:1.0; stroke-linejoin: miter">
<path d="M254.89024,671.9361C255.36577,671.91064,255.84605,671.8964,256.32736,671.8964C255.84605,671.89734,255.3669,671.9121,254.89024,671.9361 Z"/>
</g>
<g style="fill:rgb(178,215,242); fill-opacity:1.0; stroke-linejoin: miter">
<path d="M237.36072,679.7604C238.85352,678.2648,240.52365,676.9474,242.33418,675.8373C234.63835,680.555,229.50334,689.0418,229.50429,698.7297C229.50783,713.54584,241.52052,725.5552,256.33694,725.5521C271.1537,725.5495,283.16235,713.53687,283.1597,698.71985C283.16147,706.1273,280.15894,712.8356,275.3036,717.6889L237.36072,679.7604 Z"/>
</g>
<g style="fill:rgb(139,181,211); fill-opacity:1.0; stroke-linejoin: miter">
<path d="M256.32736,671.89734C255.84605,671.89734,255.3669,671.9121,254.89024,671.937C250.30342,672.18024,246.02467,673.5737,242.33293,675.8373C240.5224,676.9474,238.85352,678.2648,237.35962,679.7604L275.30188,717.6889C280.15784,712.8356,283.1597,706.1273,283.1585,698.71985C283.15646,683.904,271.14264,671.89435,256.32736,671.89734 Z"/>
</g>
<g style="fill:rgb(178,215,242); fill-opacity:1.0; stroke-linejoin: miter">
<path d="M199.36969,953.5968L118.87261,873.12756L118.8877,953.6111L212.7835,953.5957 Z"/>
</g>
<g style="fill:rgb(139,181,211); fill-opacity:1.0; stroke-linejoin: miter">
<path d="M118.86547,832.8868L212.76164,832.8696L212.76628,859.6976L118.87063,859.7144L118.86547,832.8868 Z M118.86547,832.8868L212.76164,832.8696L212.76628,859.6976L118.87063,859.7144L118.86547,832.8868 Z M118.86547,832.8868L212.76164,832.8696L212.76628,859.6976L118.87063,859.7144L118.86547,832.8868 Z M118.86547,832.8868L212.76164,832.8696L212.76628,859.6976L118.87063,859.7144L118.86547,832.8868 Z"/>
</g>
<g style="fill:rgb(88,95,113); fill-opacity:1.0; stroke-linejoin: miter">
<path d="M212.78534,967.00854L226.19958,967.00635L226.1968,953.59204L226.18266,873.11L226.18024,859.6957L226.17508,832.8687L226.1731,819.4545L212.75958,819.4582L118.8632,819.4742L105.4495,819.47784L105.452,832.89087L105.45719,859.7175L105.45921,873.1315L105.474045,953.61426L105.47603,967.0277L118.88998,967.02686L212.78534,967.00854 Z M118.86547,832.8868L212.76164,832.8709L212.76628,859.6976L118.87063,859.715L118.86547,832.8868 Z M118.87261,873.12756L212.76907,873.1124L212.7835,953.59326L118.8877,953.6111L118.87261,873.12756 Z"/>
</g>
<g style="fill:rgb(139,181,211); fill-opacity:1.0; stroke-linejoin: miter">
<path d="M212.7835,953.59424L212.76907,873.1116L118.87261,873.1293L199.36969,953.5968 Z"/>
</g>
<g style="fill:rgb(173,158,127); fill-opacity:1.0; stroke-linejoin: miter">
<path d="M397.23724,1034.0432L397.2299,993.8021L397.1984,819.4227L269.76755,819.4472L269.79904,993.82556L269.80652,1034.0667 Z"/>
</g>
<g style="fill:rgb(112,97,78); fill-opacity:1.0; stroke-linejoin: miter">
<path d="M269.79904,993.82556L55.178738,993.86487L55.186184,1034.1052L269.80652,1034.0676L269.80652,1034.0667 Z"/>
</g>
<g style="fill:rgb(112,97,78); fill-opacity:1.0; stroke-linejoin: miter">
<path d="M397.23724,1034.0432L397.23724,1034.0447L457.5991,1034.033L457.5924,993.791L397.2299,993.80347 Z"/>
</g>
<g style="fill:rgb(255,255,255); fill-opacity:0.7058824; stroke-linejoin: miter">
<path d="M699.62866,488.7811C700.2411,486.54208,700.5392,484.23105,700.51587,481.8887C700.37366,468.03714,688.9896,456.88425,675.13794,457.02585C669.37537,457.08383,663.7667,459.14255,659.345,462.82187C655.4125,466.0933,652.5591,470.51517,651.19495,475.40414C641.9171,474.63248,633.5968,480.59982,631.06616,489.2109C629.65955,488.9058,628.224,488.75888,626.7782,488.7742C616.11804,488.8834,607.5332,497.58243,607.64185,508.2424C607.7511,518.9036,616.51196,527.42444,627.1726,527.31555L694.6692,526.6256C705.32983,526.5164,713.91406,517.817,713.80493,507.15646C713.7158,498.43503,707.8668,491.041,699.62866,488.7811 Z"/>
</g>
<g style="fill:rgb(0,0,0); fill-opacity:1.0; stroke-linejoin: miter">
<path d="M554.227,691.65857Q542.0784,692.2046,529.73425,701.20447Q520.78217,708.0638,519.72473,718.6449Q518.6311,729.62933,524.1569,740.0282Q527.34863,747.1085,545.7032,767.3094L578.9682,715.99695Q571.32983,701.644,566.5664,697.0329Q561.08203,691.597,554.2867,691.65857"/>
</g>
<g style="fill:rgb(34,49,70); fill-opacity:1.0; stroke-linejoin: miter">
<path d="M575.10785,772.05835L574.6913,772.0951Q573.18896,772.3888,574.3134,775.03253L586.12787,789.10254Q587.2782,790.59674,586.50696,792.1789Q583.3401,793.94696,573.22314,789.3597Q569.1026,787.3647,559.7261,779.33264L555.35254,777.4389Q549.72614,776.66364,539.4416,782.47034Q524.1807,806.17535,522.25867,814.43896Q518.07935,826.12067,518.2105,836.0331Q519.01154,860.8152,529.33765,883.7118Q546.2844,920.95514,554.9409,924.1439Q549.4908,968.776,551.1249,986.4333Q551.57117,995.16064,554.37946,1007.3176L567.54205,1049.696Q569.7258,1058.7739,571.1148,1068.9062Q573.3365,1087.4392,573.62476,1107.5652Q571.50714,1113.4343,569.08307,1121.2449L650.44495,1121.2458Q654.7252,1084.388,648.7804,1038.4316Q649.3599,1037.1838,639.211,980.80493Q629.65955,915.9675,626.75525,898.8763Q622.9951,876.3031,618.3654,854.56915Q608.6102,811.55634,600.9599,798.7915Q599.12714,792.6763,586.58093,778.635Q581.60394,773.9968,575.10785,772.05835 Z"/>
</g>
<g style="fill:rgb(255,244,0); fill-opacity:1.0; stroke-linejoin: miter">
<path d="M548.902,788.0249Q532.89276,793.6073,524.46124,819.8811Q518.5652,838.54834,526.3087,866.5636Q535.3797,900.3523,548.7828,912.52185Q556.84937,920.0322,568.4655,923.7804L583.4854,919.9319Q599.87427,906.5698,601.799,888.87695Q604.51154,864.55786,595.94165,828.6168Q591.0844,808.3091,578.69244,798.2178Q562.49963,784.745,549.0522,787.984"/>
</g>
<g style="fill:rgb(255,244,0); fill-opacity:1.0; stroke-linejoin: miter">
<path d="M582.3051,785.4566Q583.6436,792.02844,580.428,792.02905Q578.9092,792.0287,577.73004,791.53503Q577.6249,791.562,577.4937,791.562Q576.4615,791.56213,573.7919,789.8739L573.78955,789.87476Q576.60236,791.9331,579.21405,794.3894Q582.4824,797.506,585.655,801.8805Q587.4906,804.2626,593.09576,813.52075Q593.93176,814.81396,594.6768,815.7422Q596.46454,817.93774,597.9884,817.9375Q598.0881,817.9375,598.18555,817.92773Q600.20605,817.6714,600.8163,814.73706Q601.33356,811.87463,600.0657,808.22034Q597.7225,801.5035,588.38293,789.8136L588.38074,789.8146 Z"/>
</g>
<g style="fill:rgb(255,244,0); fill-opacity:1.0; stroke-linejoin: miter">
<path d="M553.15717,777.2947Q548.3456,777.29517,539.6288,782.33826Q536.7205,786.64087,534.0077,791.05347L534.0096,791.0536Q533.8335,791.7594,533.80774,792.31775Q533.8518,792.37415,533.9124,792.37415Q534.0537,792.37415,534.2834,792.0669Q536.7213,788.68994,537.8703,787.46716Q539.106,786.1008,540.27185,785.1183Q543.089,782.713,546.3004,781.6854Q548.4778,780.9789,551.07904,780.97815Q555.91626,780.9789,562.22156,783.4242Q566.74744,785.2542,581.7943,795.2672Q580.3694,787.60956,570.4954,780.4996Q556.9336,777.38257,553.7016,777.3042L553.4916,777.3009Q553.3268,777.2947,553.15717,777.2947L553.15717,777.2958 Z"/>
</g>
<g style="fill:rgb(186,160,135); fill-opacity:1.0; stroke-linejoin: miter">
<path d="M755.3098,782.7738L589.50385,818.8324L619.2126,953.2154Q737.99286,925.86224,770.83655,919.09515Q792.42694,914.56757,800.034,913.79584L800.8482,917.2072L804.68024,914.58Q805.8414,913.23737,800.0008,913.6246L776.26086,791.1825L755.6022,782.8887"/>
</g>
<g style="fill:rgb(186,160,135); fill-opacity:1.0; stroke-linejoin: miter">
<path d="M747.49054,702.34937L654.2519,714.5667L586.4322,741.8423L602.2484,818.74036L602.3513,818.8932L765.3188,787.7025L747.5081,702.43665"/>
</g>
<g style="fill:rgb(186,160,135); fill-opacity:1.0; stroke-linejoin: miter">
<path d="M719.473,617.37146L602.11115,639.1479L596.27545,663.0197L612.14545,734.2634L734.3451,708.90674L719.4769,617.39746"/>
</g>
<g style="fill:rgb(255,187,156); fill-opacity:1.0; stroke-linejoin: miter">
<path d="M568.3481,843.2815Q558.6149,842.5065,551.25073,857.8634Q559.486,904.5083,574.4307,915.3683Q582.7109,922.1222,595.7989,924.0672Q610.15607,926.0429,615.65753,926.3166Q648.5201,927.1867,650.95886,927.66254Q659.4433,928.3538,664.7755,929.65607Q669.678,930.769,673.56366,933.25604Q675.5513,934.2872,682.02765,940.75336Q683.3554,941.8411,684.527,942.42084Q687.3993,943.8957,692.11285,943.8497Q694.98193,943.8549,699.1503,943.3234Q699.9354,943.3171,714.2826,940.88776L726.2239,939.5313Q729.78125,938.99005,731.69904,935.93Q734.5629,930.4256,732.4258,928.2286Q732.14276,927.95294,730.99335,927.7486Q725.778,927.4809,722.9995,926.6701Q719.82764,925.8156,716.1726,923.8842Q704.92255,917.59845,703.0764,912.7531Q702.4068,910.6884,705.13354,909.19745Q705.34375,908.6701,716.08154,905.48456Q717.8716,904.8299,719.1568,903.8599Q722.2675,901.0616,719.98785,899.257Q716.9426,896.84735,705.68915,899.72943Q688.39404,904.4809,683.2009,909.6965Q681.6077,910.3536,677.0099,910.2504Q646.1386,908.92084,616.3739,897.35565Q603.92676,892.70667,593.2737,888.1593Q594.251,867.8108,585.17194,846.464Q574.0361,843.2742,568.4814,843.28186"/>
</g>
<g style="fill:rgb(255,187,156); fill-opacity:1.0; stroke-linejoin: miter">
<path d="M566.6815,705.5861Q562.6582,705.1011,550.7147,712.23376Q542.3021,716.92065,539.47845,721.1534Q537.04584,724.55414,537.16077,730.1874Q537.2428,732.976,537.8867,736.0824Q538.8545,740.7046,540.1251,744.8609L538.8601,745.1524Q535.9903,740.4162,534.1001,739.15234Q532.6091,737.9939,530.6167,737.8434Q523.4944,738.23035,524.7367,743.8499Q525.96136,747.422,529.4896,750.7288Q530.7346,751.8185,531.57947,752.1385L535.13513,753.06464Q535.9734,753.48004,537.12823,754.76086Q540.35754,758.62225,543.0304,764.386Q548.4834,775.44934,542.13654,782.10034Q552.361,778.2377,553.9527,778.9469Q558.1954,779.03577,565.5128,782.76447Q579.61505,789.47437,598.64417,811.19934Q590.401,800.2673,586.8563,793.36487Q583.3393,786.6496,582.1289,779.33307Q581.2278,774.0798,581.1322,766.2802Q588.2087,763.4229,588.15704,755.5124Q588.2499,743.7762,584.5293,729.0892Q583.24133,724.6628,581.0483,722.0821Q581.32404,720.6468,579.9297,717.7903Q578.40765,714.59784,576.2228,711.6682Q571.3908,705.376,566.7855,705.58685"/>
</g>
<g style="fill:rgb(34,49,70); fill-opacity:0.15294118; stroke-linejoin: miter">
<path d="M729.8983,703.03546L701.2898,708.1518L729.90796,705.83124L729.8983,703.0438L729.8983,703.03546 Z M601.88995,638.1702L594.41846,662.81537L610.1588,731.36755Q610.73157,731.7453,611.26666,732.0689L611.26416,732.0691L586.4271,741.87976L601.415,815.8552L670.8456,798.54584L655.5997,714.6373L655.58527,714.5601L619.40015,728.8552L619.4,728.85626Q619.4107,728.7285,619.4201,728.5978L619.4173,728.599L637.81366,721.1615L637.83563,721.15186L620.9692,722.82056L619.4775,725.93445L619.4775,725.9349Q619.44714,724.19525,619.2613,722.06946Q618.4973,713.2878,614.4711,693.83563Q612.5233,684.42,609.62244,671.59436Q607.2976,661.26587,601.9112,638.2584L601.88995,638.1702 Z M582.0107,807.7283Q581.9442,826.6116,583.9101,838.8164Q585.3258,848.08813,589.725,859.1161L582.0194,807.7666L582.01324,807.7283 Z M551.1766,861.7284L551.1812,861.75586L551.18286,861.7572L551.1766,861.7284 Z M589.7346,859.182L594.2358,889.176Q595.83276,880.68555,594.887,874.92725Q594.4582,872.0409,593.44507,868.98486Q592.86865,867.0669,589.74866,859.21716L589.7346,859.182 Z M551.18317,861.76733L561.4406,921.6533Q571.99036,922.1366,581.8688,922.1998Q581.87634,922.1998,581.88367,922.1998Q588.283,922.1997,588.19086,921.621Q588.13434,921.4479,587.6003,921.2031Q582.6388,919.20996,580.11334,917.78625Q577.13043,916.1509,574.572,914.1598Q569.0679,909.8883,565.3697,903.8622Q557.1918,890.63464,551.18506,861.76733 Z"/>
</g>
<g style="fill:rgb(34,49,70); fill-opacity:0.11372549; stroke-linejoin: miter">
<path d="M544.91516,758.10175L578.99414,777.80194L580.27985,766.6738Q568.705,767.88776,562.4445,766.1129Q556.3807,764.6395,544.94434,758.11786"/>
</g>
<g style="fill:rgb(255,255,255); fill-opacity:1.0; stroke-linejoin: miter">
<path d="M567.44,749.7338Q574.70294,751.5578,577.9615,750.25995Q579.5154,749.65436,580.8086,748.1515Q581.98444,746.81726,583.5122,743.79614L567.4403,749.7338"/>
</g>
<g style="fill:rgb(13,1,1); fill-opacity:0.1254902; stroke-linejoin: miter">
<path d="M577.0784,733.9008L574.1948,738.6219L568.5899,737.3688L575.49133,740.80176L577.07605,733.91125"/>
</g>
<g style="fill:rgb(255,255,255); fill-opacity:1.0; stroke-linejoin: miter">
<path d="M572.7054,719.8132Q571.4018,720.42303,570.50653,722.10815L570.9198,723.5744Q570.9018,723.8337,570.93164,723.9215Q570.96454,724.0339,571.0406,724.0781Q571.3538,724.29553,572.79846,723.62506Q574.527,722.8111,575.6919,721.91833Q576.73956,721.10016,576.7247,720.5593Q576.6545,719.83466,575.2675,719.55286Q573.8099,719.3145,572.7054,719.8132"/>
</g>
<g style="fill:rgb(0,0,0); fill-opacity:1.0; stroke-linejoin: miter">
<path d="M572.32794,719.8132L571.0838,720.99634L571.5799,720.7157Q571.89557,722.8434,572.3966,723.2827Q572.7725,723.6863,573.49115,723.4455Q574.23334,723.1696,574.713,722.53485Q575.10846,721.9882,574.9224,721.4456Q574.7579,720.8159,573.40015,719.6486L573.8314,719.2936L572.32996,719.8127"/>
</g>
<g style="fill:rgb(0,0,0); fill-opacity:1.0; stroke-linejoin: miter">
<path d="M572.16394,716.586Q571.13666,716.9357,570.0979,719.298L574.65704,716.9258Q574.2141,716.7592,573.8149,716.6441Q573.4662,716.5442,573.1815,716.50525Q572.60657,716.4246,572.1683,716.5847"/>
</g>
<g style="fill:rgb(255,255,255); fill-opacity:1.0; stroke-linejoin: miter">
<path d="M553.89795,728.1247Q555.0367,727.24384,556.94476,727.2187L558.06,728.256Q558.2985,728.35815,558.36334,728.4248Q558.4483,728.506,558.453,728.5934Q558.503,728.97107,557.2463,729.95056Q555.7325,731.11566,554.40576,731.74414Q553.19904,732.3012,552.7244,732.0403Q552.11194,731.6469,552.4957,730.2841Q552.9496,728.87933,553.89795,728.12506"/>
</g>
<g style="fill:rgb(0,0,0); fill-opacity:1.0; stroke-linejoin: miter">
<path d="M554.0705,727.78925L555.692,727.22375L555.21576,727.5364Q556.96405,728.7896,557.12555,729.436Q557.3134,729.95465,556.7697,730.4842Q556.1855,731.0187,555.4013,731.15497Q554.73456,731.25665,554.3372,730.84344Q553.8521,730.409,553.4342,728.6675L552.92126,728.8892L554.06903,727.79016"/>
</g>
<g style="fill:rgb(0,0,0); fill-opacity:1.0; stroke-linejoin: miter">
<path d="M551.27515,726.1689Q552.0564,725.4137,554.63226,725.57L550.4373,728.54095Q550.49207,728.07025,550.57166,727.6628Q550.6428,727.30756,550.7385,727.03595Q550.9299,726.48816,551.2724,726.1708"/>
</g>
<g style="fill:rgb(0,0,0); fill-opacity:0.3882353; stroke-linejoin: miter">
<path d="M630.69464,1014.5664L630.2015,1108.6504L627.0963,1121.2449L632.28326,1121.2458Q634.3614,1110.916,636.23206,1097.471L637.43945,1086.5886L638.19305,1076.1294L638.49304,1066.0933L638.33936,1056.4802L637.732,1047.29L636.671,1038.523L635.1563,1030.179L633.1879,1022.2582L630.69464,1014.5664 Z"/>
</g>
</g>
</svg>